<?xml version="1.0" encoding="utf-8"?>
<svg
  xmlns="http://www.w3.org/2000/svg"
  xmlns:xlink="http://www.w3.org/1999/xlink">
  <symbol viewBox="0 0 369.44 153" id="borodinski"
    xmlns="http://www.w3.org/2000/svg">
    <path d="M119.86 11.43C127 9 127.59 0 120.51 0c-1.95 0-4.28 1.37-5.88 4.17L105 20.73a13.83 13.83 0 0 1-1.37 2c-2.46-3.39-1.74-8.45 1.71-10.67L104 10.27c-7.46 4.75-5.27 18.48 7.18 18.48 10.6-.01 15.52-12.75 8.68-17.32zM111.07 26a10.23 10.23 0 0 1-5.13-1.23 18.43 18.43 0 0 0 1.78-2.53l6-10.37 1 .1C123 13.72 119.69 26 111.07 26zm3.83-16.21l2.87-4.93c2.6-4.48 5.92-1.85 4.14 1.5-1.37 2.57-3.39 3.36-7.01 3.43z"/>
    <path d="M259.21 19l-.24.27a16.74 16.74 0 0 1-6.5 5c.58-.92 1-1.92 1.47-2.67l3.93-6.74c3.32-5.64-2.05-7.53-5.68-4.28l.72-1.23h-3.56L243.79 19l-.24.27a7.66 7.66 0 0 1-5.37 2.63l3.35-5.78c2.16-3.73.17-7.25-3.18-7.25-2.74 0-4.86 1.09-6.91 4.65l-1.75 3-1.46 2.48-.19.22c-2.57 3-5.06 5.34-6.64 5.34-.79 0-1.23-.55-.41-2l5.13-9c1.54-2.7.07-4.65-1.92-4.65-1.54 0-3.18.85-5 2.7l5.68-9.89h-3.56L211.45 19l-.2.23A22.14 22.14 0 0 1 207 23.1c1.13-3.39.89-8.59 3.08-13.14l-2.67-1.44c-1.47 2-4.69 6.67-7.9 10.43l-.24.27c-2.57 3-5.06 5.34-6.64 5.34-.79 0-1.23-.55-.41-2l3.56-6.23c1.23-2.16.65-3.42-.51-4.82l-2-2.39a1.39 1.39 0 0 1 .09-2l.11-.09-1.85-2c-2 1.81-2.19 3.83-.92 5.47l.3.41c-1.57 2.22-3.69 5.23-6 8l-.24.27c-2.57 3-5.85 5.34-8.35 5.34-2.19 0-3.49-1.37-1.85-4.24l.34-.62c2.29 1 6.6.51 9.27-4.1l.51-.89c1.92-3.28.07-5.75-2.84-5.75a7.53 7.53 0 0 0-6.67 4.11L171.7 19l-.21.24a7.59 7.59 0 0 1-5.37 2.63l3.35-5.78a8.66 8.66 0 0 0 1.34-4.09A3 3 0 0 0 168 8.82h-.41a4.14 4.14 0 0 0-2.33.79l4.52-7.83h-3.63L156.18 19l-.19.21c-2.57 3-5.06 5.34-6.64 5.34-.79 0-1.23-.55-.41-2l3.56-6.23c1.23-2.16.65-3.42-.51-4.82l-2-2.39a1.39 1.39 0 0 1 .1-2l.11-.09-1.85-2c-2 1.81-2.19 3.83-.92 5.47l.31.41c-1.57 2.22-3.7 5.23-6 8l-.24.27c-2.57 3-5.06 5.34-6.64 5.34-.79 0-1.23-.55-.41-2l5.75-10.06h-2A3.7 3.7 0 0 0 134.44 9c-1.92 0-4.58 1.51-6.09 4.11l-5 8.62c-1.51 2.64-.44 5.06 2.43 5.06 1.44 0 3.22-.92 4.93-2.33.17 1.37 1.27 2.33 3.08 2.33 2.94 0 6.33-3.15 9.27-6.57 1.71-2 3-3.76 5.88-7.63l.48.58a1.75 1.75 0 0 1 .21 2l-3.76 6.53c-1.5 2.64-.44 5.06 2.43 5.06 2.06 0 4.34-1.55 6.54-3.65 0 2.43 1.81 3.8 4.11 3.8a7.87 7.87 0 0 0 6-3.3 6 6 0 0 0 .79 0 10.44 10.44 0 0 0 4.72-1.4c-.19 2.57 1.68 4.52 4.82 4.52 4 0 8-3.15 11-6.57 1.71-2 3-3.76 5.88-7.63l.48.58a1.75 1.75 0 0 1 .21 2l-3.76 6.53c-1.51 2.64-.44 5.06 2.43 5.06s6.33-3.15 9.27-6.57c2-2.33 3.8-4.82 5.06-6.5-1.4 3.7-.65 10.33-4 10.33a2 2 0 0 1-1.68-1.3L198 23.82a3.88 3.88 0 0 0 3.9 2.87 9.63 9.63 0 0 0 1-.07h.1a12.54 12.54 0 0 0 5.47-2.36l-1.22 2.12h3.59l5.4-9.41c5.48-6.88 7.9-6 6.36-3.35l-4.62 8c-1.51 2.63-.44 5.06 2.43 5.06 2.07 0 4.35-1.56 6.55-3.67 0 4.54 6.29 5.42 10.15.55h.79a9.8 9.8 0 0 0 3.81-.94l-6.48 11.24h3.59l10.64-18.51c4-5.41 6.47-3.42 5.54-1.81l-5.37 9.31a1.37 1.37 0 0 1-2.57 0l-2 1a3.88 3.88 0 0 0 3.9 2.87h.21c5.17-.1 8.55-3.18 11.46-6.57a2.25 2.25 0 0 0-1.42-1.15zm-81-5c2.05-3.52 5.68-2.94 3.56.75l-.51.89c-1.71 2.91-4 2.84-5.34 2.36zm-45.61 5.61c-2.16 3.39-4.28 5-5.75 5-.79 0-1.23-.55-.41-2l5-8.66c1.92-3.32 5.71-2.46 4 .75zm26.79 4.86a1.33 1.33 0 0 1-1.44-1.37 4 4 0 0 1 .62-1.85l1.25-2.25a5.23 5.23 0 0 0 2.26 3.69 3.34 3.34 0 0 1-2.7 1.74zM163.1 21a3.84 3.84 0 0 1-1.51-3.22c0-2.53 2.46-6.67 4.48-6.67a1.36 1.36 0 0 1 1.34 1.54 4.33 4.33 0 0 1-.68 2.12zm73.08-1.78H236a2.1 2.1 0 0 0-2.09 2.11 2.34 2.34 0 0 0 .34 1.2v.07c-1.68 2.87-5.75 2.33-3.63-1.37l2.7-4.69 1.68-2.92c2.5-4.24 5.92-2.57 3.76 1.13zM-.004 73.257l5.714-5.713 5.712 5.715-5.714 5.712zm352.023.026l5.714-5.713 5.713 5.715-5.715 5.712zM46.8 73.48h2.08v-8.32h3.27v-2.09H46.8v10.41zM61.69 75V62.32a4.56 4.56 0 0 0-2.56-4.07 4.46 4.46 0 0 1 .48 2v12.68a4.47 4.47 0 0 1-1.66 3.51 5.2 5.2 0 0 1 1.66 3.69v14.1A4.63 4.63 0 0 1 55 98.79H41.49v2.08h15.64a4.63 4.63 0 0 0 4.56-4.56v-14.1A5.19 5.19 0 0 0 60 78.52 4.47 4.47 0 0 0 61.69 75z"/>
    <path d="M46.8 91.34h2.08v-8.39h3.27v-2.08H46.8v10.47zm33.01 0h2.08V65.16h3.27v-2.09h-5.35v28.27z"/>
    <path d="M92.14 58.25a4.46 4.46 0 0 1 .48 2v34a4.63 4.63 0 0 1-4.56 4.56H77a4.5 4.5 0 0 1-2-.48 4.56 4.56 0 0 0 4.07 2.56h11.08a4.63 4.63 0 0 0 4.56-4.56v-34a4.57 4.57 0 0 0-2.57-4.08zm20.68 15.23h2.08v-8.32h3.28v-2.09h-5.36v10.41zm12.25 9.04a4.47 4.47 0 0 0 2.59-4.06V62.32a4.56 4.56 0 0 0-2.57-4.1 4.55 4.55 0 0 1 .48 2v16.15a4.46 4.46 0 0 1-2.57 4.07l3.08 18.35h-5.68l.35 2.08h7.39zm-9.42-1.65h-2.83v17.92h-5.31v2.09h7.39V82.95h1.1l-.35-2.08zm29.19 10.47h2.09V65.16h3.27v-2.09h-5.36v28.27z"/>
    <path d="M157.18 58.25a4.45 4.45 0 0 1 .48 2v34a4.63 4.63 0 0 1-4.56 4.56H142a4.49 4.49 0 0 1-2-.48 4.56 4.56 0 0 0 4.07 2.56h11.09a4.63 4.63 0 0 0 4.56-4.56v-34a4.57 4.57 0 0 0-2.54-4.08zm20.67 33.09h2.09V65.16h3.27v-2.09h-5.36v28.27z"/>
    <path d="M190.19 58.25a4.46 4.46 0 0 1 .48 2v34a4.63 4.63 0 0 1-4.56 4.56h-13.56v2.08h15.64a4.63 4.63 0 0 0 4.56-4.56v-34a4.57 4.57 0 0 0-2.56-4.08zm21.05-.48v41.02h-5.31v2.09h7.39V57.77h-2.08zm32.88 0v41.02h-5.9l.59 2.09h7.4V57.77h-2.09zm-12.81 22.18v18.84h-5.3v2.09h7.39V87.19l-2.09-7.24zM263.58 83h6.11v-2.13h-8.19a4.51 4.51 0 0 1-2-.48 4.53 4.53 0 0 0 4.08 2.61zm2.83 2.73l-2.09.48v5.13h2.09v-5.61zm10.25-27.48a4.46 4.46 0 0 1 .48 2V69l-5.37 1.24v2.56l7.45-1.73v-8.75a4.56 4.56 0 0 0-2.56-4.07z"/>
    <path d="M276.66 76.05a4.46 4.46 0 0 1 .48 2v16.2a4.63 4.63 0 0 1-4.56 4.56h-11.09a4.5 4.5 0 0 1-2-.48 4.56 4.56 0 0 0 4.07 2.56h11.08a4.63 4.63 0 0 0 4.56-4.56V80.12a4.56 4.56 0 0 0-2.54-4.07zm-12.34-12.98v10.41h2.09v-8.32h3.27v-2.09h-5.36zm33.69 17.8h-.68v17.92h-5.3v2.09h7.39V85.35l-1.41-4.48zm15.14-23.1h-2.75l-6.23 19.41 6.9 21.61h-6.01l.58 1.84.06.25h7.45l-6.9-21.62 6.9-21.49zm17.38 0v41.02h-5.3v2.09h7.38V57.77h-2.08zM167.9 123.85h1.41c5.43.28 9.69 1.73 12.39 4.72 2.74-3 7-4.46 12.46-4.72h1.35c12.11.82 17.63 9.5 27.3 13.19a11.12 11.12 0 0 0 4.79 1c2.48-.27 4.06-2.78 3.74-5.58-.34-3-3.28-5.61-6.56-4.17a4.32 4.32 0 0 0-1.17.8c-.25.23-.53.83-1.17.61-.6-.5 0-1.23.31-1.65a6 6 0 0 1 6.07-3c5.63.4 10.67 5.34 9.81 12.82C236.71 149 226.53 152 214.46 153h-3.93a48.28 48.28 0 0 1-28.77-11 49.07 49.07 0 0 1-28.9 11H149c-12.16-1.07-22.44-4-24.23-15.46-.68-8.16 4.18-12.17 9.82-12.58a6.11 6.11 0 0 1 6.14 3c.28.46.8 1.17.31 1.72-.61.11-.91-.37-1.17-.61a4 4 0 0 0-2.82-1.23c-3.86-.14-6.08 4.15-4.54 7.61a4.33 4.33 0 0 0 3.37 2.52 11.69 11.69 0 0 0 4.79-1 23.84 23.84 0 0 0 3.87-1.9c7.35-4.26 13.1-10.31 23.36-11.22zM361.634 82.906l5.713-5.714 2.086 2.085-5.713 5.715zM9.667 82.95l5.713-5.714 2.086 2.086-5.713 5.713z"/>
    <path d="M55.65 69A4.47 4.47 0 0 1 54 72.48a5.2 5.2 0 0 1 1.66 3.69v14.1a4.63 4.63 0 0 1-4.56 4.56H35.45V51.72h15.64a4.59 4.59 0 0 1 4.56 4.56zm-7.45-9.89h-5.36v10.41h5.36zm0 17.8h-5.36v10.47h5.36zm35.9-25.19a4.59 4.59 0 0 1 4.56 4.56v34a4.63 4.63 0 0 1-4.56 4.56H73a4.59 4.59 0 0 1-4.56-4.56v-34A4.55 4.55 0 0 1 73 51.72h11.1zm-2.9 7.39h-5.35v28.27h5.36zm33.51 35.72l-3-17.92h-2.83v17.92h-7.39V51.72h15.64a4.53 4.53 0 0 1 4.5 4.56v16.14a4.47 4.47 0 0 1-2.63 4.06l3.08 18.35zm-.49-35.72h-5.36v10.41h5.36zm34.92-7.39a4.59 4.59 0 0 1 4.56 4.56v34a4.63 4.63 0 0 1-4.56 4.56h-11.08a4.59 4.59 0 0 1-4.56-4.56v-34a4.55 4.55 0 0 1 4.5-4.56h11.1zm-2.9 7.39h-5.36v28.27h5.36zm35.91-7.39a4.59 4.59 0 0 1 4.56 4.56v34a4.63 4.63 0 0 1-4.56 4.56h-15.64V51.72zm-2.89 7.39h-5.36v28.27h5.36zm20.63-7.39h7.39v43.11h-7.39zm40.28 0v43.11h-7.39L227.36 76v18.83H220V51.72h7.33l5.42 17.67V51.72zm28.45 17.8a4.59 4.59 0 0 1 4.56 4.56v16.2a4.63 4.63 0 0 1-4.56 4.56h-11.08a4.59 4.59 0 0 1-4.54-4.56v-8.87l7.39-1.72v7.7h5.36V76.91h-8.19a4.55 4.55 0 0 1-4.56-4.54V56.28a4.55 4.55 0 0 1 4.54-4.56h11.1a4.59 4.59 0 0 1 4.56 4.56V65l-7.45 1.73v-7.62h-5.36v10.41zm31.6 3.7l6.9 21.62h-7.45l-.06-.25-5.54-17.67h-.68v17.91H286V51.72h7.39v17.8h.61l5.67-17.8h7.51zm18.97-21.5h7.39v43.11h-7.39z"/>
  </symbol>
  <symbol viewBox="0 0 360 40" id="browser"
    xmlns="http://www.w3.org/2000/svg">
    <path d="M356 0H4C1.8 0 0 1.8 0 4v36h360V4c0-2.2-1.8-4-4-4zM22.991 27a7 7 0 1 1 0-14 7 7 0 0 1 0 14zm23.011 0a7 7 0 1 1 0-14 7 7 0 0 1 0 14zm23.011 0a7 7 0 1 1 0-14 7 7 0 0 1 0 14z"/>
  </symbol>
  <symbol viewBox="0 0 15 15" id="cart-icon"
    xmlns="http://www.w3.org/2000/svg">
    <circle cx="4.5" cy="13.5" r="1.5"/>
    <circle cx="12.5" cy="13.5" r="1.5"/>
    <path d="M15 2H4.07l-.422-2H0v2h2.031l1.985 9H15V9H9.441L15 6.951z"/>
  </symbol>
  <symbol viewBox="0 0 23 23" id="checkbox-off"
    xmlns="http://www.w3.org/2000/svg">
    <path d="M20 2c.542 0 1 .458 1 1v17c0 .542-.458 1-1 1H3c-.542 0-1-.458-1-1V3c0-.542.458-1 1-1h17m0-2H3C1.35 0 0 1.35 0 3v17c0 1.65 1.35 3 3 3h17c1.65 0 3-1.35 3-3V3c0-1.65-1.35-3-3-3z"/>
  </symbol>
  <symbol viewBox="0 0 27 23" id="checkbox-on"
    xmlns="http://www.w3.org/2000/svg">
    <path d="M7.285 7.486l-2.829 2.829 7.783 7.783L26.171 4.166l-2.828-2.829-11.104 11.102z"/>
    <path d="M21 20c0 .542-.458 1-1 1H3c-.542 0-1-.458-1-1V3c0-.542.458-1 1-1h16.908L21.493.415A2.96 2.96 0 0 0 20 0H3C1.35 0 0 1.35 0 3v17c0 1.65 1.35 3 3 3h17c1.65 0 3-1.35 3-3v-9.829l-2 2V20z"/>
  </symbol>
  <symbol viewBox="0 0 21 21" id="close-cross"
    xmlns="http://www.w3.org/2000/svg">
    <path d="M13.328 10.5l7.371-7.371a1.003 1.003 0 0 0 0-1.414L19.285.3a1.003 1.003 0 0 0-1.414 0L10.5 7.672 3.129.301a1.003 1.003 0 0 0-1.414 0L.301 1.715a1.003 1.003 0 0 0 0 1.414L7.672 10.5.301 17.871a1.003 1.003 0 0 0 0 1.414l1.415 1.414a1.003 1.003 0 0 0 1.414 0l7.371-7.371 7.371 7.371a1.003 1.003 0 0 0 1.414 0l1.414-1.414a1.003 1.003 0 0 0 0-1.414L13.328 10.5z"/>
  </symbol>
  <symbol viewBox="0 0 12 22" id="facebook"
    xmlns="http://www.w3.org/2000/svg">
    <path d="M12 4V0H8a4 4 0 0 0-4 4v4H0v4h4v10h4V12h4V8H8V4h4z"/>
  </symbol>
  <symbol viewBox="0 0 20 23" id="filter-button"
    xmlns="http://www.w3.org/2000/svg">
    <path opacity=".3" d="M10 20C4.477 20 0 15.522 0 10v2c0 5.522 4.477 10 10 10 5.522 0 10-4.478 10-10v-2c0 5.522-4.478 10-10 10z"/>
    <circle cx="10" cy="10" r="10"/>
    <circle cx="10" cy="10" r="2"/>
  </symbol>
  <symbol viewBox="0 0 108.08 36.85" id="html-academy"
    xmlns="http://www.w3.org/2000/svg">
    <title>logo-htmlacademy-small1</title>
    <path d="M44.61 26.86a2 2 0 0 0 .55-.1v1.33a3.25 3.25 0 0 1-1.18.21 1.67 1.67 0 0 1-1.67-1 4.84 4.84 0 0 1-3.14 1.08c-1.51 0-2.91-.83-2.91-2.55 0-2.13 2-2.79 3.71-2.79a11.08 11.08 0 0 1 2.17.25v-.3c0-1-.76-1.77-2.19-1.77a7.42 7.42 0 0 0-3 .64v-1.7a10.21 10.21 0 0 1 3.19-.55c2.36 0 3.81 1.12 3.81 3.65v3a.54.54 0 0 0 .49.59h.17zm-6.44-1.13a1.35 1.35 0 0 0 1.46 1.25h.11a3.39 3.39 0 0 0 2.41-1v-1.42a9.72 9.72 0 0 0-1.81-.21c-1 0-2.16.33-2.16 1.38zm12.36-6.11a5 5 0 0 1 2.57.64v1.72a4.08 4.08 0 0 0-2.3-.7 2.75 2.75 0 1 0 0 5.49 5 5 0 0 0 2.43-.64v1.71a6.27 6.27 0 0 1-2.76.57A4.21 4.21 0 0 1 46 24.49v-.41a4.32 4.32 0 0 1 4.18-4.46h.38zm12.17 7.24a2 2 0 0 0 .55-.1v1.33a3.25 3.25 0 0 1-1.18.21 1.67 1.67 0 0 1-1.67-1 4.84 4.84 0 0 1-3.14 1.08c-1.51 0-2.91-.83-2.91-2.55 0-2.13 2-2.79 3.71-2.79a11.08 11.08 0 0 1 2.17.25v-.3c0-1-.76-1.77-2.19-1.77a7.42 7.42 0 0 0-3 .64v-1.7a10.21 10.21 0 0 1 3.19-.55c2.36 0 3.81 1.12 3.81 3.65v3a.54.54 0 0 0 .49.59h.17zm-6.44-1.13a1.35 1.35 0 0 0 1.47 1.25h.11a3.39 3.39 0 0 0 2.41-1v-1.42a9.72 9.72 0 0 0-1.81-.21c-1.06 0-2.16.33-2.16 1.38zM73 15.98v12.2h-1.65v-1.32a3.88 3.88 0 0 1-3.19 1.54 4.4 4.4 0 0 1 0-8.78 3.81 3.81 0 0 1 3 1.3v-4.94H73zm-4.53 5.22a2.76 2.76 0 1 0 0 5.52 2.86 2.86 0 0 0 2.68-1.74v-2a2.91 2.91 0 0 0-2.66-1.73zM79 19.62c3.31 0 4.46 2.68 3.92 5.09H76.7c.21 1.5 1.67 2.11 3.19 2.11a6.11 6.11 0 0 0 2.64-.59v1.6a7.14 7.14 0 0 1-3 .57c-2.53 0-4.75-1.42-4.75-4.42a4.18 4.18 0 0 1 4-4.39H79zm.09 1.54a2.28 2.28 0 0 0-2.44 2.1v.06h4.65a2 2 0 0 0-2.17-2.16zm5.73 7v-8.31h1.65v1a3.81 3.81 0 0 1 2.78-1.27 2.86 2.86 0 0 1 2.64 1.4 4.12 4.12 0 0 1 2.91-1.33 3.06 3.06 0 0 1 3.2 3.33v5.2h-1.9v-5.15a1.59 1.59 0 0 0-1.42-1.75h-.26a2.8 2.8 0 0 0-2.07 1.12v5.78h-1.9v-5.15A1.59 1.59 0 0 0 89 21.29h-.2a3 3 0 0 0-2.21 1.29v5.63h-1.73zm21.31-8.33h1.9l-3.91 9.46c-.9 2.17-2.09 2.86-3.35 2.86a4.76 4.76 0 0 1-1.1-.14v-1.57a2.86 2.86 0 0 0 .85.12c.9 0 1.58-.64 2.07-1.9l.17-.42-4-8.4h2l2.86 6.29zM38.73 1.44V6.2a3.81 3.81 0 0 1 2.7-1.14 3.25 3.25 0 0 1 3.44 3.4v5.15H43V8.7a1.81 1.81 0 0 0-1.61-2h-.3a2.93 2.93 0 0 0-2.32 1.39v5.52h-1.9V1.44h1.9zm11.21.85v3h3v1.6h-3v3.81c0 1.1.5 1.46 1.58 1.46a4.49 4.49 0 0 0 1.69-.33v1.6a6.8 6.8 0 0 1-2.21.35 2.55 2.55 0 0 1-2.86-2.74V6.87h-1.56V5.24h1.5V2.72zm5.4 11.31V5.26H57v1a3.81 3.81 0 0 1 2.77-1.28 2.86 2.86 0 0 1 2.6 1.33 4.12 4.12 0 0 1 2.91-1.33 3.06 3.06 0 0 1 3.16 3.4v5.21h-1.9V8.44a1.59 1.59 0 0 0-1.42-1.75h-.23a2.8 2.8 0 0 0-2.07 1.12v5.78h-1.9V8.44a1.59 1.59 0 0 0-1.42-1.75h-.23a3 3 0 0 0-2.21 1.29v5.63h-1.72zM71.17 1.43H73v12.15h-1.83V1.43zM14.71-.02h-.16L0 1.52v26.67l14.55 8.66 14.55-8.66V1.52zm12.5 27.1l-12.66 7.54L1.9 27.1V16.16l12.59 7.5v1.32l-8.63-5.1v1.31l8.68 5.21v1.39l-8.67-5.16v1.35l8.68 5.21 8.75-5.24v-5.66l3.9-2.31V27.1zm0-12.53l-3.48 2-1.6 1-7.62-4.57v1.31L21 18.21l-.14.09-1 .54-5.37-3.2v1.34l4.24 2.52-1 .67-3.2-1.9v1.31l2.1 1.24-2.13 1.26L2 14.63l12.51-7.54zm0-1.32L14.49 5.74 1.91 13.23v-10L14.56 1.9l12.65 1.33v10z"/>
  </symbol>
  <symbol viewBox="0 0 11 10" id="icon-down-dir"
    xmlns="http://www.w3.org/2000/svg">
    <path d="M5.5 10L0 0h11"/>
  </symbol>
  <symbol viewBox="0 0 11 10" id="icon-up-dir"
    xmlns="http://www.w3.org/2000/svg">
    <path d="M5.5 0L0 10h11z"/>
  </symbol>
  <symbol viewBox="0 0 21 21" id="instagram"
    xmlns="http://www.w3.org/2000/svg">
    <path d="M18 0H3C1.35 0 0 1.35 0 3v15c0 1.65 1.35 3 3 3h15c1.65 0 3-1.35 3-3V3c0-1.65-1.35-3-3-3zm-7.5 7c1.93 0 3.5 1.57 3.5 3.5S12.43 14 10.5 14 7 12.43 7 10.5 8.57 7 10.5 7zM18 18H3V9h1.181A6.504 6.504 0 0 0 4 10.5a6.5 6.5 0 1 0 13 0 6.45 6.45 0 0 0-.181-1.5H18v9zm0-11h-4V3h4v4z"/>
  </symbol>
  <symbol viewBox="0 0 148.051 72.707" id="mishka"
    xmlns="http://www.w3.org/2000/svg">
    <path d="M143.165 31.397c-1.481 1.055-3.053 1.942-4.657 2.777.037-1.747-.119-3.465-.591-5.127.051-.333.102-.667.145-1.002.375-3.005.657-7.122-2.003-9.224-.335-.265-1.249-.035-1.922.274a4.64 4.64 0 0 0-.496-.415 14.922 14.922 0 0 1-.229-.735c-.035-.12-.168-.188-.36-.215.285-.383.263-.818-.419-1.092a18.59 18.59 0 0 0-1.143-.413c-.067-.072-.126-.096-.172-.058l-.006.003c-.938-.3-1.893-.533-2.859-.705.138-.331.396-.813.552-1 .132-.157.279-.3.429-.439.062-.057.125-.111.188-.165l.069-.061.084-.062c.38-.288.846-.865.221-1.202-.57-.307-1.507-.142-2.007.238-.863.655-1.626 1.379-2.092 2.361-2.01-.169-4.05-.155-6.079-.078a.757.757 0 0 0 .141-.25c.184-.585-.908-.525-1.188-.488-1.562.205-3.125.407-4.688.604 1.367-3.773 3.083-8.578 1.001-12.264-1.19-2.106-3.906-2.579-6.098-2.652-2.436-.081-4.898.461-7.036 1.636-4.762 2.618-7.11 7.71-8.21 13.138-.497-.657-2.301-.425-2.645.468-.124.32-.229.645-.327.972-.16.174-.282.386-.345.637-.015.056-.027.111-.041.167l-.196.007c.02-.104.041-.207.064-.31.146-.109.247-.232.28-.366.574-2.296 1.156-4.588 1.948-6.82.269-.756-2.511-.399-2.804.426a51.17 51.17 0 0 0-1.12 3.622c-.165.078-.356.187-.425.326-.017.034-.031.07-.047.104-.107-.093-.271-.151-.466-.178v-.959c0-.432-2.823-.034-2.823.757v1.568a2.329 2.329 0 0 0-.472.266l-.19.172a.373.373 0 0 0-.12.245c-.007.026-.013.053-.023.078-.017.022-.032.046-.052.066-.126.128-.184.335-.027.467.19.16.508.167.738.159.048-.002.097-.007.146-.011v.468a75.61 75.61 0 0 1-.675-.006l-.411-.051c-.021-.385-.676-.452-1.351-.328a.524.524 0 0 0-.001-.148 23.602 23.602 0 0 1-.229-1.79c.237-.079.471-.18.68-.313.159-.102.328-.224.328-.43v-.194c0-.18-.412-.204-.499-.208a2.849 2.849 0 0 0-.589.041c-.075-1.305-.081-2.615-.081-3.925 0-.84-2.824-.315-2.823.757 0 1.786.009 3.57.193 5.343a2.477 2.477 0 0 0-.27.009v-1.532c0-1.045-1.297-1.22-2.147-.809.313-.262.489-.622.37-1.039-.403-1.414-.778-2.827-.974-4.287-.188-1.394-3.017-.677-2.824.756.196 1.46.57 2.873.975 4.287.235.828 1.338.889 2.104.51-.227.196-.373.452-.373.76v.63c-.189-.098-.439-.16-.77-.16-1.057 0-1.671.885-1.4 1.477a41.915 41.915 0 0 1-.491-.083c-.382-1.248-.686-2.514-.714-3.83-.02-.942-1.27-1.049-2.108-.672a.571.571 0 0 0-.049-.168c-.385-.804-.567-1.674-.78-2.533-.332-1.35-3.158-.601-2.823.756.157.638.3 1.281.519 1.898l-.056.014c-.3.081-.601.205-.854.387-.832.079-1.828.565-1.752 1.208.058.478.131.953.209 1.427-.546.091-1.092.177-1.639.26a11.905 11.905 0 0 1-.618-2.443c-.131-.924-1.555-.854-2.332-.26-.774-2.062-1.796-4.019-3.122-5.761-2.621-3.439-7.097-4.613-11.242-3.794-1.9.376-3.735 1.184-5.043 2.646-1.21 1.353-1.352 3.089-1.17 4.805.158 1.493.61 4.005 1.584 5.976-.35-.012-.709.041-.949.139-.283.117-.561.248-.833.388a95.043 95.043 0 0 1-5.803-.07c-4.179-.194-8.301-.86-12.497-.742-.923.026-1.534.719-1.465 1.262-1.046.502-1.733 1.315-2.143 2.287-1.732-1.15-3.479-2.266-5.335-3.211-.689-.351-3.3.707-2.285 1.224 1.84.938 3.561 2.072 5.278 3.216.512.341 1.32.133 1.842-.07.03-.012.09-.039.165-.077-.306 1.44-.157 3.067.241 4.493.03.11.093.198.172.27a9.289 9.289 0 0 0-.007 1.015l-.002.165c-.4.189-.712.48-.76.839a37.38 37.38 0 0 0-.305 4.229c-.272.199-.462.469-.485.798-.233 3.345.037 6.652.467 9.95.185 2.694.69 5.344 1.172 7.999.058.416.113.832.167 1.249-.265 1.133-.398 2.395-.237 3.482-.881.171-1.729.866-1.233 1.617.765 1.158 1.644 2.018 2.606 2.649-.633-.103-1.42.11-1.871.555-.818.809-1.715 1.531-2.533 2.339-.429.424-.314.935.289 1.078.651.155 1.516-.06 1.997-.535.817-.808 1.715-1.531 2.533-2.339.248-.245.308-.517.204-.731 3.21 1.735 7.235 1.27 11.114.943-.882 1.589-1.542 3.273-2.17 4.997-.262.719 2.507.373 2.801-.436.61-1.675 1.237-3.343 2.103-4.895 3.741.117 7.479.122 11.215.051.149.182.416.305.746.336 3.27.311 6.489-.096 9.688-.699 4.789-.229 9.577-.525 14.366-.809 7.527-.186 15.056-.346 22.587-.32.1.109.204.215.314.318.272.256.621.345.979.33.062.009.128.016.199.019a69.72 69.72 0 0 1 2.141.145c.156.04.341.059.559.046h.005c.782.067 1.563.14 2.346.208.171.214.497.342.792.361 3.804.25 7.612.522 11.423.703.14.229.536.34.82.343 7.067.06 15.278 2.804 21.558-1.736.501-.362.273-.877-.264-.984a1.992 1.992 0 0 0-.326-.034c.008-.016.018-.03.023-.045a60.72 60.72 0 0 0 2.945-8.552c.365-.198.632-.494.646-.86.049-1.189.188-2.406.371-3.639a63.27 63.27 0 0 0 .441-2.66c.387-2.169.806-4.367 1.018-6.541 2.28-1.147 4.538-2.335 6.622-3.819 1.565-1.117-.784-1.883-1.832-1.137zm-55.33-15.046a1.13 1.13 0 0 0-.134.123c.073-.312.149-.623.228-.934h.111c-.068.27-.138.541-.205.811z"/>
    <path d="M63.261 12.626c.127.196.562.217.753.217.377.001.759-.083 1.106-.225.404-.166 1.101-.559.77-1.07-.363-.562-.609-1.19-.975-1.754-.127-.196-.562-.217-.754-.217a2.914 2.914 0 0 0-1.105.226c-.404.165-1.101.558-.77 1.069.363.562.61 1.191.975 1.754zm-42.578-1.719c.216.647 1.111.647 1.648.504.472-.127 1.39-.616 1.175-1.26-.208-.624-.433-1.293-.893-1.78-.479-.507-1.324-.417-1.902-.151-.412.19-1.177.838-.695 1.349.382.405.478.772.667 1.338zm9.977 2.988c.843 0 3.073-1.276 1.186-1.276-.843 0-3.074 1.276-1.186 1.276zm91.902-1.621c.346.072.717.032 1.055-.059.321-.086.7-.234.941-.477.355-.355.728-.729.962-1.178.104-.198.174-.399-.005-.587-.188-.197-.507-.245-.763-.251a2.695 2.695 0 0 0-1.106.22c-.252.106-.621.294-.756.553a2.964 2.964 0 0 1-.351.513l-.023.027a.578.578 0 0 0-.028.032c-.064.067-.13.133-.195.199-.158.158-.346.365-.279.614.063.241.333.349.548.394zm13.299 5.418c.631-.061 1.395-.246 1.894-.662 1.319-1.102 2.603-2.248 3.623-3.642.288-.393-1.049-.243-1.118-.23-.534.099-1.316.276-1.661.746-.949 1.296-2.164 2.349-3.391 3.374-.498.415.441.434.653.414zm10.879 27.077h-4.872c-.616 0-1.475.468-1.556 1.139-.09.739.754.922 1.304.922h4.871c.617 0 1.475-.468 1.557-1.139.09-.739-.754-.922-1.304-.922zM57.021 60.784c-.498.08-1.412.296-1.639.831a34.65 34.65 0 0 0-1.364 3.897c-.211.733 2.571.333 2.798-.451a34.575 34.575 0 0 1 1.363-3.897c.222-.527-.966-.412-1.158-.38zm4.581 2.591a3.893 3.893 0 0 0-1.029.152 3.87 3.87 0 0 0-.968.383c-.141.084-.338.2-.338.39a3.075 3.075 0 0 1-.021.346.755.755 0 0 1-.113.272c-.064.082-.108.179.018.253.196.114.502.083.712.062a4.713 4.713 0 0 0 1.099-.252c.243-.085.613-.207.795-.407.149-.164.241-.286.284-.501.035-.177.05-.349.05-.529-.001-.166-.422-.168-.489-.169zm55.05 3.676c-.354-.686-3.043.331-2.823.757.844 1.638 1.939 3.122 2.923 4.677.436.689 3.04-.414 2.823-.757-.982-1.554-2.079-3.039-2.923-4.677zm4.092-2.338c-.294-.588-1.067-.563-1.624-.414-.35.094-1.485.598-1.199 1.17l1.169 2.339c.294.588 1.068.562 1.624.414.35-.094 1.486-.598 1.199-1.171l-1.169-2.338zM5.668 43.105c-1.486.359-3.006.571-4.481.975-.537.146-1.342.641-1.16 1.318.181.675 1.128.709 1.664.562 1.476-.403 2.995-.615 4.482-.975.541-.13 1.338-.651 1.16-1.318-.185-.685-1.124-.692-1.665-.562z"/>
    <path d="M43.752 40.106c-.083-2.707-.514-5.396-.479-8.108.028-2.194.393-4.45-.363-6.554.047-.239.097-.477.141-.717.195-1.055-3.3-.497-3.849.468-.346.283-.523.621-.377.965.037.087.069.175.102.263-.662 3.233-1.584 6.364-2.645 9.498-.406 1.199-.896 2.37-1.31 3.565-.587-1.114-1.181-2.214-1.658-3.408-1.386-3.464-2.636-6.965-4.326-10.299.192-1.543-3.232-1.381-3.907.032-.816 1.709-.711 3.434-.442 5.262.303 2.061.356 4.086.381 6.167.048 4.012.361 8.016.421 12.027-.357.397-.466.889-.092 1.388.163.217.365.385.576.554.913.73 3.533.108 3.528-1.283-.014-4.16-.314-8.312-.424-12.471a99.221 99.221 0 0 1-.024-1.222l.173.438c.646 1.618 1.322 3.191 2.205 4.696.876 1.491 1.315 3.092 1.819 4.719-.19.219-.305.467-.234.715-.04.181.071.294.253.363.645.552 1.858.277 2.532-.007.29-.122.566-.263.834-.427.348-.215.891-.686.735-1.17l-.088-.281c.475-1.281.716-2.612.975-3.965.275-1.441.789-2.805 1.307-4.171.053.625.107 1.249.157 1.872.206 2.577.033 5.118.008 7.696-.009.854.054 1.648.221 2.484.068.345.37 1.824.283 1.904-.617.57-.438 1.268.389 1.45.923.203 2.1-.106 2.795-.749 1.209-1.117.638-2.871.364-4.28-.46-2.362.093-5.008.019-7.414zm8.44.682c-.074-2.007-.771-3.897-.781-5.925-.011-2.327.183-4.635-.156-6.949-.107-.732-4.093.101-3.953 1.059.312 2.129.199 4.268.161 6.412-.037 2.063.472 3.934.737 5.958.271 2.073-.085 4.195.15 6.271.11.971.758 2.768.09 3.612-.424.537 1.482.345 1.568.33.775-.143 1.809-.395 2.324-1.048.659-.835.198-2.448.054-3.387-.32-2.08-.115-4.236-.194-6.333zm16.479-3.35c-2.081-2.809-5.943-.787-8.64-1.554-1.39-.396-1.407-2.292-1.403-3.428.004-1.439-.115-2.757-.276-4.184-.119-1.061-.024-2.14.753-2.93.143-.146.866-.339.817-.342a8.098 8.098 0 0 1 1.077-.094c1.562-.067 4.654.234 4.056 2.506-.269 1.019 3.629.435 3.913-.643 1.224-4.64-7.352-3.749-9.774-3.106-2.231.592-4.692 1.862-4.819 4.438-.062 1.23.274 2.401.328 3.62.061 1.403-.2 2.802.291 4.155 1.092 3.01 5.57 1.59 7.849 1.761 3.88.29 2.722 5.519 2.772 7.955.027 1.3 1.192 3.461.213 4.549-.601.668-2 .706-2.817.774-.821.069-2.221.315-2.768-.465-1.002-1.431.093-3.834-.121-5.474-.122-.933-4.104-.096-3.953 1.059.346 2.651-1.412 6.2 2.424 6.655 2.464.293 5.238-.162 7.568-.936 1.207-.4 2.328-.951 3.272-1.81 1.045-.949.701-2.369.421-3.579-.682-2.943.739-6.333-1.183-8.927zm17.484-.19c-.122-3.812-.696-7.582-.711-11.4-.009-1.989-4-1.317-3.993.346.015 3.641.501 7.232.688 10.862l.012.223c-1.967-.018-3.934.179-5.905.248.203-4.675-.617-9.311-.438-13.983.022-.587-3.909-.091-3.953 1.059-.172 4.516.593 8.997.457 13.514-.064 2.155-.247 4.303-.262 6.46-.008 1.105.173 2.204.332 3.293.147 1.008.488 2.352.183 3.349-.238.779 3.594.293 3.897-.701.55-1.794-.224-4.076-.408-5.892-.177-1.74-.04-3.53.084-5.296 2.048-.131 4.096-.3 6.135-.012.091 1.391.197 2.779.325 4.172.106 1.168.181 2.334.198 3.507.016 1.028.143 2.519-.223 3.492-.78 2.075 3.179 1.906 3.757.368.71-1.887.507-4.237.386-6.22-.151-2.468-.481-4.92-.561-7.389zm17.087 4.514c-.948-2.783-2.395-5.224-3.649-7.868 1.01-1.967 2.036-3.935 2.959-5.942.838-1.824 1.459-3.854 3.107-5.139.579-.451.555-.904-.258-.96-.883-.061-2.083.194-2.795.749-1.498 1.168-2.448 2.587-3.229 4.307a162.468 162.468 0 0 1-2.94 6.13c-.074.149-.15.298-.226.448-.494.318-.792.769-.645 1.277-.798 1.578-1.614 3.146-2.521 4.653-.302-5.584-.963-11.162-1.161-16.751-.045-1.281-4.007-.484-3.953 1.059.246 6.93 1.23 13.845 1.299 20.775l-.049.051c-.303.311-.191.498.053.606a61.474 61.474 0 0 1-.211 5.303c-.477.752.467 1.149 1.094 1.149h.098c.746 0 2.649-.353 2.742-1.376.193-2.119.254-4.234.234-6.349 1.605-1.731 2.916-3.663 4.093-5.687.766 1.494 1.495 3 2.007 4.625.868 2.766 2.32 5.308 3.159 8.087.55 1.822 4.497.745 3.952-1.059-.839-2.778-2.225-5.345-3.16-8.088zm23.718-4.677c-.212-.84-1.385-.857-2.292-.777-.013-.338-.021-.677-.036-1.016-.127-2.686-.168-5.428-.396-8.105-.211-2.479-1.599-3.368-4.008-3.276-2.438.093-5.277.532-7.55 1.416-2.632 1.023-4.096 2.961-4.601 5.733-.555 3.041.242 6.275.377 9.331.155 3.535.066 7.078.062 10.614 0 .579 3.952.031 3.953-1.059.003-2.801.043-5.602 0-8.402a53.08 53.08 0 0 0-.104-2.466c1.382-.599 3.721.013 5.097.143 1.117.105 2.188-.167 3.273-.294.021 2.333.108 4.678.204 7.008.049 1.194.481 3.563-.356 4.552-.44.521 1.493.347 1.568.333.801-.147 1.777-.404 2.324-1.05.958-1.13.46-3.824.405-5.173-.079-1.928-.103-3.859-.143-5.789 1.166-.152 2.44-.865 2.223-1.723zm-14.752-.152c-.104-1.257-.219-2.513-.306-3.777-.161-2.352.118-5.634 2.31-7.062.587-.383 1.691-.317 2.377-.442.979-.177 1.974-.393 2.855.192 1.221.81.92 3.69.918 4.913-.002 2.024.21 4.038.313 6.058a13.82 13.82 0 0 1-1.698.077c-2.307-.055-4.584-.418-6.769.041zM48.771 25.176a3.193 3.193 0 0 0 1.49-.529l.26-.219c.524-.338.979-.834.734-1.373-.509-1.115-.428-2.251-.42-3.445.007-.966-.972-1.257-1.797-1.185-.729.064-2.188.586-2.194 1.534-.007 1.002-.072 2.034.11 3.02-.049.113-.075.241-.105.358-.056.214.016.424.144.595l.002.135.015.338a.908.908 0 0 0 .433.535c.39.236.884.279 1.328.236z" fill="#fff"/>
  </symbol>
  <symbol viewBox="0 0 160 65" id="nerds-logo"
    xmlns="http://www.w3.org/2000/svg">
    <path d="M157.936 49.374c-1.235.161-2.523.271-3.757.377v.056c-2.415 17.364-26.188 20.231-26.779 6.599-.269-6.167 11.593-7.95 23.398-9.088.429-11.09-15.901 5.667-21.608-4.601-5.019-9.025 14.632-17.938 16.728-16.102 6.438 5.636 3.404 6.618-1.379 8.335-9.49 3.41-5.791 4.107-4.511 3.726 7.569-2.253 14.366-1.04 14.312 8.317 1.288-.107 2.522-.163 3.757-.271 2.306-.215 2.467 2.435-.161 2.652zm-7.514.756c-9.124 1.028-17.013 2.436-16.153 5.355 1.716 5.573 13.577 6.818 16.153-5.355zm-32.744-5.212c-.682-.037-.703-6.038.112-11.688 1.005-6.951 11.935-3.357 9.093-1.906-2.975 1.52-4.429 8.718-6.266 12.087-.635 1.161-2.605 1.526-2.939 1.507zM42.105 21.002c2.376 4.866-4.937 8.171-8.292 4.521-1.398-1.555-.755-4.56 2.636-6.193 1.697-.836 4.073-1.596 5.656 1.672zm14.957-2.141c2.585 5.297-5.38 8.896-9.031 4.922-1.522-1.695-.823-4.963 2.873-6.742 1.846-.911 4.432-1.736 6.158 1.82zM28.883 61.666c-7.919 5.338-14.219 4.159-12.212-10.848 1.45-10.904-.948-11.521-3.122-9.442-2.845 2.697-4.628 9.723-4.684 16.412a50.98 50.98 0 0 0 1.004 4.776c.334 1.63-4.907 3.315-7.974 1.011C.837 62.79 0 54.865 0 44.131c0-8.824 1.171-14.895 2.23-15.175 8.029-2.191 9.312 1.348 7.583 7.981a47.637 47.637 0 0 0-1.395 7.924c1.673-4.664 4.071-8.485 6.803-10.173 7.416-4.664 13.605-2.473 12.434 6.801-2.007 16.58-2.174 18.827-.39 17.535 2.231-1.574 3.68 1.238 1.618 2.642zm26.099-2.076c-2.175 3.484-7.806 5.171-13.216 4.552-7.75-.843-12.545-7.756-10.705-18.097 2.008-11.185 18.065-18.322 23.196-10.341 3.735 5.789-2.175 16.017-11.597 19.783l-.502.168c1.951 5.171 6.579 7.476 11.039 2.36 2.119-2.36 3.624-1.348 1.785 1.575zm-13.605-7.418c5.855-4.159 7.806-13.32 6.189-15.905-1.728-2.697-5.074 1.517-6.245 11.746-.111 1.461-.111 2.865.056 4.159zm41.714-7.18c-1.597 2.507-3.903 4.384-5.966 5.059-2.398.73-5.185.056-5.185-2.698 0-1.011.892-3.372 3.624-4.721-.168-1.911-1.394-2.417-2.286-1.686-3.345 2.586-7.417 12.25-6.356 19.221.055.168.055.337.055.506.168.617.335 1.237.558 1.854.557 1.574-4.907 3.316-7.973.956-1.059-.788-1.617-6.97-1.617-17.704 0-8.824 1.951-16.636 3.011-16.917 6.412-1.743 10.147 1.292 8.14 7.249-1.171 3.373-2.23 6.801-2.843 10.399 2.453-6.688 6.523-12.872 9.812-14.501 5.856-2.923 10.092.956 8.867 7.813-.056.11-.112.393-.112.449-.056.562-.566 2.302-.39 1.741-.516 1.645-.892 2.277-1.339 2.98z"/>
    <path d="M113.207 26.161a86.988 86.988 0 0 0-1.115 7.531c-1.059 10.06-.612 18.996.613 22.986.726 2.137 3.457 4.946 6.078 2.023 2.843-3.203 5.967-1.349 2.174 2.416-2.34 2.305-6.689 3.878-11.039 3.428-3.123-.393-5.018-2.415-6.134-5.505-.444.898-.947 1.685-1.56 2.302-2.119 2.193-4.685 3.43-7.974 3.092-6.637-.73-10.538-7.923-8.699-18.153 1.952-10.791 11.319-14.725 16.728-11.857.112-1.349.223-2.699.335-4.104.055-.281.055-.562.11-.843a96.962 96.962 0 0 1-4.962.956C73.787 34.423 82.04 14.864 87.894 9.75c6.636-5.733 7.36-1.855 5.297-.562-3.68 2.36-5.297 15.905 5.241 15.905 1.729 0 3.346-.112 4.962-.281C106.685 6.49 116.665-2.391 124.75.532c8.976 3.26 8.029 17.535-11.543 25.629zm-10.928 24.393c-.224-3.542-.224-7.532-.167-11.636 0-.506.056-1.011.056-1.461-3.346-1.518-6.635 3.653-7.473 10.792-.946 8.373 2.788 12.813 4.908 10.791 1.617-1.631 2.453-6.803 2.676-8.486zm24.086-43.165c-1.784-2.642-8.307.562-12.098 14.332 9.535-4.554 13.326-12.422 12.098-14.332z"/>
  </symbol>
  <symbol viewBox="0 0 147 40" id="pink"
    xmlns="http://www.w3.org/2000/svg">
    <svg viewBox="0 0 147 40">
      <path d="M71.874 18.661c0-.708.58-1.288 1.256-1.288h7.18c5.087 0 8.436 2.704 8.436 7.146v.064c0 4.861-4.057 7.373-8.854 7.373h-5.475v6.825c0 .708-.58 1.288-1.288 1.288-.676 0-1.256-.58-1.256-1.288v-20.12zm8.114 10.98c3.734 0 6.182-1.996 6.182-4.959v-.063c0-3.22-2.414-4.894-6.053-4.894h-5.699v9.917h5.57v-.001zM93.603 18.5c0-.708.579-1.288 1.255-1.288.709 0 1.288.58 1.288 1.288v20.283a1.29 1.29 0 0 1-1.288 1.287c-.676 0-1.255-.579-1.255-1.287V18.5zm9.141.032c0-.676.58-1.256 1.256-1.256h.354c.58 0 .935.29 1.288.74l13.684 17.45V18.468c0-.676.547-1.256 1.256-1.256.676 0 1.224.58 1.224 1.256v20.349c0 .676-.481 1.19-1.158 1.19h-.129c-.548 0-.935-.321-1.319-.772l-13.975-17.868v17.45c0 .676-.547 1.256-1.256 1.256-.676 0-1.223-.58-1.223-1.256V18.532h-.002zm25.429-.032c0-.708.58-1.288 1.257-1.288.708 0 1.286.58 1.286 1.288v12.331l12.848-13.168c.29-.257.579-.451.998-.451.676 0 1.225.612 1.225 1.256 0 .354-.162.644-.42.901l-7.984 7.92 8.564 10.561c.225.291.354.547.354.935 0 .676-.578 1.288-1.286 1.288-.483 0-.806-.258-1.03-.58l-8.402-10.463-4.863 4.861v4.894a1.29 1.29 0 0 1-1.286 1.288c-.677 0-1.257-.58-1.257-1.288V18.5h-.004zM98.498 9.875a3.623 3.623 0 0 1-3.623-3.624 3.625 3.625 0 0 1-3.625 3.624 3.625 3.625 0 0 1 3.625 3.624 3.623 3.623 0 0 1 3.623-3.624zM43.094 19.313c.246 0 .489.014.73.033a2.491 2.491 0 0 0-2.136-1.221 1.994 1.994 0 0 1-1.884-1.354c-.727.208-1.425.482-2.089.816.062.017.122.038.188.038a2 2 0 0 1 2 2c0 .096-.015.188-.028.281 1-.382 2.084-.593 3.219-.593z"/>
      <path d="M60.462 28.016L55.287 6.651C54.926 4.303 52.694 0 46.688 0a1.5 1.5 0 1 0 0 3c4.856 0 5.575 3.729 5.639 4.143l4.767 19.701h-2.073c-.445-3.557-2.453-6.628-5.305-8.522a2.503 2.503 0 0 0-1.529 2.303c0 .088-.015.171-.026.256a9.034 9.034 0 0 1 3.829 5.964c.082.489.135.988.135 1.5s-.053 1.012-.135 1.5c-.716 4.272-4.421 7.531-8.896 7.531-4.475 0-8.181-3.259-8.896-7.531-.082-.488-.135-.988-.135-1.5s.053-1.011.135-1.5a8.949 8.949 0 0 1 .808-2.483 1.995 1.995 0 0 1-1.852-1.985.743.743 0 0 0-.192-.489 11.954 11.954 0 0 0-1.795 4.958h-1.82c-.741-5.927-5.802-10.531-11.927-10.531S6.235 20.917 5.493 26.844H3.42L8.187 7.143C8.25 6.729 8.97 3 13.826 3a1.5 1.5 0 1 0 0-3C7.82 0 5.588 4.303 5.227 6.651L.052 28.016c-.266 1.109.531 1.826 1.426 1.826.012 0 .023.004.036.004h3.982c.079.628.215 1.237.387 1.831a.726.726 0 0 0 .102-.354 2 2 0 0 1 2-2c.166 0 .324.025.478.063a8.337 8.337 0 0 1-.074-1.042c0-.512.053-1.011.135-1.5.715-4.271 4.421-7.531 8.896-7.531s8.18 3.26 8.896 7.531c.082.489.135.988.135 1.5s-.053 1.012-.135 1.5c-.715 4.272-4.421 7.531-8.896 7.531a8.959 8.959 0 0 1-5.386-1.794c-.35.302-.8.491-1.299.491a.75.75 0 0 0-.749.748c0 .29-.065.564-.176.812a11.94 11.94 0 0 0 7.614 2.743c6.125 0 11.185-4.604 11.927-10.53h1.814c.742 5.926 5.802 10.53 11.927 10.53s11.186-4.604 11.927-10.53H59c.012 0 .023-.004.036-.004.895.001 1.692-.716 1.426-1.825z"/>
      <path d="M50.686 16.125a4.499 4.499 0 0 1-4.499-4.499 4.499 4.499 0 0 1-4.499 4.499 4.499 4.499 0 0 1 4.499 4.499 4.498 4.498 0 0 1 4.499-4.499zm-12.782 3.501a2.748 2.748 0 0 1-2.749-2.749 2.748 2.748 0 0 1-2.749 2.749 2.747 2.747 0 0 1 2.749 2.749 2.748 2.748 0 0 1 2.749-2.749zm-27.17 14.446a2.748 2.748 0 0 1-2.749-2.75c0 1.52-1.23 2.75-2.749 2.75a2.747 2.747 0 0 1 2.749 2.748 2.748 2.748 0 0 1 2.749-2.748z"/>
    </svg>
  </symbol>
  <symbol viewBox="0 0 25 25" id="radio-off"
    xmlns="http://www.w3.org/2000/svg">
    <path d="M12.5 4c4.687 0 8.5 3.813 8.5 8.5 0 4.687-3.813 8.5-8.5 8.5C7.813 21 4 17.187 4 12.5 4 7.813 7.813 4 12.5 4m0-4C5.597 0 0 5.597 0 12.5S5.597 25 12.5 25 25 19.403 25 12.5 19.403 0 12.5 0z"/>
  </symbol>
  <symbol viewBox="0 0 25 25" id="radio-on"
    xmlns="http://www.w3.org/2000/svg">
    <path d="M12.5 4c4.687 0 8.5 3.813 8.5 8.5 0 4.687-3.813 8.5-8.5 8.5C7.813 21 4 17.187 4 12.5 4 7.813 7.813 4 12.5 4m0-4C5.597 0 0 5.597 0 12.5S5.597 25 12.5 25 25 19.403 25 12.5 19.403 0 12.5 0z"/>
    <circle cx="12.5" cy="12.5" r="4.5"/>
  </symbol>
  <symbol viewBox="0 0 26 15" id="vk"
    xmlns="http://www.w3.org/2000/svg">
    <path d="M16.138 11.51c.956-.309 2.18 2.04 3.483 2.939.978.681 1.727.534 1.727.534l3.473-.05s1.815-.112.957-1.554c-.071-.12-.503-1.069-2.585-3.022-2.177-2.043-1.882-1.712.739-5.244 1.597-2.153 2.236-3.468 2.036-4.028-.192-.539-1.365-.399-1.365-.399L20.69.713c-.381.001-.704.119-.851.515-.003.004-.621 1.666-1.445 3.079-1.741 2.989-2.436 3.148-2.724 2.961-.661-.433-.494-1.737-.494-2.664 0-2.897.432-4.105-.846-4.417-.427-.104-.739-.172-1.828-.182-1.392-.021-2.574 0-3.244.329-.445.223-.786.712-.579.74.26.035.843.16 1.155.586.401.552.389 1.789.389 1.789s.229 3.411-.54 3.834c-.528.29-1.25-.302-2.803-3.016-.793-1.388-1.392-2.922-1.392-2.922s-.116-.285-.326-.441c-.25-.185-.6-.244-.6-.244L.848.684S.29.7.085.946c-.182.218-.015.668-.015.668s2.909 6.881 6.203 10.347c3.02 3.182 6.452 2.971 6.452 2.971h1.555s.469-.054.709-.312c.224-.24.214-.691.214-.691s-.031-2.109.935-2.419z"/>
  </symbol>
</svg>
